<?xml version="1.0" standalone="no"?>
<!DOCTYPE svg PUBLIC "-//W3C//DTD SVG 20010904//EN"
 "http://www.w3.org/TR/2001/REC-SVG-20010904/DTD/svg10.dtd">
<svg version="1.0" xmlns="http://www.w3.org/2000/svg"
 width="604.000000pt" height="604.000000pt" viewBox="0 0 604.000000 604.000000"
 preserveAspectRatio="xMidYMid meet">

<g transform="translate(0.000000,604.000000) scale(0.100000,-0.100000)"
fill="#000000" stroke="none">
<path d="M2805 4526 c-88 -14 -92 -11 70 -46 240 -53 507 -184 711 -351 98
-80 237 -229 317 -340 87 -121 196 -342 241 -489 88 -283 102 -598 41 -894
-34 -163 -144 -434 -225 -551 -18 -26 -30 -48 -28 -50 2 -2 40 29 86 68 257
224 435 535 498 872 28 150 26 432 -5 575 -32 151 -63 238 -136 385 -203 409
-575 697 -1030 800 -100 23 -149 28 -290 31 -103 2 -201 -2 -250 -10z"/>
<path d="M2160 4276 c-87 -62 -247 -202 -261 -228 -11 -20 -10 -21 30 -14 194
31 444 26 631 -13 696 -144 1231 -682 1370 -1376 43 -212 38 -522 -11 -725
-10 -46 -18 -85 -16 -87 2 -2 23 45 46 104 52 135 96 308 112 443 16 145 7
395 -21 535 -90 456 -357 855 -748 1116 -273 183 -563 275 -897 286 l-170 5
-65 -46z"/>
<path d="M1858 3735 c-118 -19 -199 -41 -210 -57 -20 -32 -88 -221 -107 -298
-69 -285 -48 -626 54 -890 189 -493 583 -835 1100 -956 111 -26 135 -28 325
-28 222 0 310 13 478 70 78 26 275 114 269 120 -2 2 -46 -6 -98 -18 -128 -30
-475 -33 -612 -5 -294 60 -566 201 -779 406 -255 244 -413 546 -469 896 -14
89 -18 345 -6 416 10 58 9 57 215 66 l152 6 0 -147 c0 -326 77 -593 247 -856
275 -424 733 -684 1243 -705 l115 -5 -85 24 c-125 36 -211 70 -327 131 -421
219 -711 622 -790 1095 -14 90 -23 384 -10 396 8 9 177 -51 279 -99 405 -190
728 -538 892 -963 56 -145 105 -364 107 -476 0 -39 1 -41 11 -18 6 16 8 94 5
215 -5 150 -11 215 -31 311 -110 522 -449 963 -921 1199 -144 72 -289 123
-440 155 -131 28 -473 37 -607 15z"/>
</g>
</svg>
